<svg xmlns="http://www.w3.org/2000/svg" width="162" height="50" viewBox="0 0 162 50"><g fill="#00A55D"><path d="M94.34 30.802c-1.138.17-1.394.88-1.394 1.62v14.622c0 .738.256 1.453 1.395 1.62v1.026h-7.083v-1.027c1.138-.2 1.422-.938 1.422-1.62v-15.76h-8.42v15.76c0 .286.027 1.42 1.393 1.62v1.027H74.57v-1.027c.6-.056 1.422-.426 1.422-1.62V32.422c0-1.193-.822-1.564-1.422-1.618v-1.024h19.77v1.024zM118.753 39.79c0 5.603-4.21 10.21-10.04 10.21-5.83 0-10.042-4.607-10.042-10.21 0-5.774 4.296-10.327 10.042-10.327 5.744 0 10.04 4.553 10.04 10.328zm-15.36 0c0 7.17 2.105 8.707 5.32 8.707 3.214 0 5.32-1.538 5.32-8.706 0-7.252-2.106-8.82-5.32-8.82-3.215 0-5.32 1.568-5.32 8.82zM133.483 29.777l5.72 16.697c.425 1.25.71 1.962 1.79 2.188v1.027h-5.29l-5.093-14.91h-.34c-.513 2.56-1.878 8.14-2.96 10.838-1.48 3.587-2.672 4.38-4.437 4.38-1.79 0-2.448-1.248-2.448-2.076 0-.936.714-1.848 1.85-1.848.286 0 .57.085.855.2.397.17.767.396 1.167.396.936 0 1.506-1.052 2.814-5.287.543-1.738 1.962-6.484 1.962-8.62 0-.286-.027-1.962-1.816-1.962h-.484v-1.023h6.71zM157.38 29.777c.796 0 1.107-.057 1.308-.514h.713v5.094h-1.024c-.653-2.505-1.965-3.074-4.58-3.074h-4.752v7.197h3.157c1.368 0 2.477-.312 2.446-1.818h1.027v5.12h-1.027c-.14-1.71-1.392-1.793-1.874-1.793h-3.73v8.19h6.83c2.104 0 3.897-1.476 4.267-3.526h1.022v5.036h-17.864v-1.027c1.34-.143 1.48-1.108 1.48-1.88V32.68c0-.856-.142-1.71-1.48-1.878v-1.024h14.08z"/><g><path d="M35.72 19.654c.54-.056 1.394-.428 1.394-1.65V6.884c0-4.67 3.698-6.428 7.622-6.428 4.725 0 7.142 3.325 7.142 6.626 0 1.505-.37 4.892-3.7 6.34-.795.343-1.62.57-2.474.57-1.167 0-2.787-.17-4.323-1.252v5.264c0 .71.513 1.537 1.508 1.65v1.025H35.72v-1.026zM41.38 9.7c0 1.48 1.536 2.416 2.985 2.416 2.56 0 2.79-2.417 2.79-5.06 0-2.62-.06-4.954-2.76-5.095-1.567-.083-3.017 1.026-3.017 2.903V9.7zM74.517 10.78c0 5.6-4.21 10.21-10.04 10.21-5.833 0-10.042-4.61-10.042-10.21C54.435 5.004 58.73.457 64.477.457c5.745 0 10.04 4.547 10.04 10.323zm-15.358 0c0 7.167 2.103 8.706 5.318 8.706s5.32-1.54 5.32-8.706c0-7.252-2.106-8.82-5.32-8.82s-5.32 1.568-5.32 8.82zM104.232 1.792c-.598.057-1.423.424-1.423 1.62V9.67h9.898V3.41c0-.738-.255-1.45-1.394-1.618V.767h7.083V1.79c-1.024.143-1.423.712-1.423 1.62l.03 14.622c0 1.08.426 1.31 1.393 1.622v1.025h-7.083v-1.026c.967-.313 1.394-.54 1.394-1.622V11.18h-9.9v6.852c0 .738.173 1.28 1.424 1.622v1.025H97.15v-1.026c1.05-.342 1.393-.682 1.393-1.622V3.412c0-.284-.027-1.42-1.394-1.62V.767h7.082v1.025zM140.897 10.78c0 5.6-4.21 10.21-10.04 10.21-5.832 0-10.04-4.61-10.04-10.21 0-5.776 4.293-10.323 10.04-10.323 5.745 0 10.04 4.547 10.04 10.323zm-15.36 0c0 7.167 2.106 8.706 5.32 8.706s5.32-1.54 5.32-8.706c0-7.252-2.106-8.82-5.32-8.82s-5.32 1.568-5.32 8.82zM157.396.767c.797 0 1.108-.057 1.31-.513h.71v5.093h-1.025c-.653-2.505-1.962-3.075-4.58-3.075h-4.747v7.2h3.157c1.365 0 2.475-.315 2.444-1.82h1.024v5.118h-1.024c-.143-1.708-1.394-1.792-1.877-1.792h-3.725v8.192h6.826c2.105 0 3.895-1.478 4.268-3.528h1.022v5.037h-17.86v-1.026c1.335-.14 1.476-1.11 1.476-1.88V3.67c0-.856-.14-1.71-1.477-1.878V.767h14.08zM95.18 19.17a1.675 1.675 0 0 1-1.262-.625c-.404-.5-.9-1.357-1.568-2.96L85.877 0h-1.784c-.37.484-1.235 1.363-3.113 1.534V2.56c.298-.03 1.162-.085 1.162.568 0 .512-.05 1.11-.297 1.735l-4.99 12.144a5.81 5.81 0 0 1-.73 1.308c-.34.45-.664.545-1.173.657-.968.227-1.85 0-1.85 1.054 0 1.334 1.393 3.41 2.502 4.407 1.08.964 1.593 1.053 1.85 1.053 1.193 0 .624-1.307.427-1.847-.198-.544-.483-1.342-.483-1.883 0-.74.4-1.08 1.622-1.08h11.296c1.195 0 1.336 1.05 1.336 1.45 0 .43-.17.856-.34 1.252-.4.91-.572 1.137-.572 1.452 0 .225.146.653.743.653 1.763 0 4.806-3.697 4.806-5.46 0-.967-.626-.855-1.11-.855zm-16.365-2.644L83.337 5.43h.1l4.668 11.266c.05.112.223.653.223.88 0 .597-.312 1.477-1.12 1.604-3.097 0-6.117-.007-7.17-.01-2.105-.484-1.466-2.03-1.223-2.644z"/></g><path d="M58.492 33.947h-2.59c-.522 1.4-1.25 3.764-1.956 7.435a63.09 63.09 0 0 0-.677 4.317c-.037-3.664.56-8.866 2.67-15.907h-5.096c-.995 2.82-1.74 5.32-2.282 7.52.13-2.768.407-5.39.934-7.338.015-.06.037-.12.052-.183h-3.09c-.718 5.05-.544 14.62-.354 19.92h10.143c-.02-2.45.042-5.747.336-7.618.443-2.817 1.345-6.173 1.91-8.147zm-29.267-4.154c-.828 3.01-1.567 5.995-2.03 8.777-.208-2.676-.313-5.38-.197-7.757.1-1.993.106-4.118.35-6.21.025-.187.192-1.71.384-3.107.19-1.365.396-2.604.425-2.785.696-4.485 1.39-7.867 1.39-7.867h-2.73c1.626-1.913 3.364-3.69 5.08-5.3h-3.66c-1.8 1.808-4.15 4.444-5.834 6.69.216-1.245.597-2.74.825-3.913 3.486-3.273 6.82-6.013 8.655-7.61H28.69c-1.13.81-3.035 2.396-4.708 3.807.258-1.234.58-2.817.802-3.807H21.43c-.297 1.2-.945 3.98-1.653 7.8a57.543 57.543 0 0 0-1.525 1.792A134.25 134.25 0 0 1 20.02.71h-2.974c-.958 2.93-2.168 7.494-3.227 14.162-3.498 2.266-8.48 7.03-11.676 14.17C-3.352 41.313 3.37 48.99 4.042 49.71h2.61c-1.28-1.545-6.77-7.75-2.09-21.557 1.41-4.167 4.767-7.808 7.868-10.477-.802 1.346-1.548 2.74-2.182 4.196-4.286 9.91-3.587 20.067-2.724 27.838h2.338c-.39-6.06-1.076-16.82 2.39-26.17.165-.452.39-.89.586-1.336-.985 8.81-1.057 14.807-.86 20.167-.273 2.125-.454 5.5-.573 7.34h19.73c-.164-1.89-.192-4.083-.263-4.563.41-3.338 1.24-10.95 2.63-15.357h-4.277zM17.593 45.298s-.792-4.666-.802-11.156c.114-.695.743-3.562.873-4.28-.098 3.275-.276 12.1-.07 15.436zm.41-24.89a77.172 77.172 0 0 0-1.044 2.725c.145-2.65.378-5.515.728-8.54.424-.628.88-1.275 1.37-1.936-.377 2.364-.743 4.97-1.055 7.75zm4.47 6.58c-.654 5.89-.637 15.895-.75 16.12-.036-1.97-.86-11.214-.35-19.738.108-1.832.358-3.73.613-5.65a86.31 86.31 0 0 1 2.5-4.014c-.68 2.76-1.44 7.012-2.012 13.282zm45.58 2.805h-2.416c-.117.176-.232.352-.332.52-.463.766-1.368 2.194-1.836 3.458.04-1.1.145-2.66.227-3.977H60.34c-.093.868-.19 1.782-.288 2.77-.222 2.266-.39 4.39-.51 6.345-1.81 4.188-2.406 8.2-2.444 10.806h6.94c-.483-3.606-.53-6.8-.54-9.884.923-2.81 2.355-6.127 4.556-10.037zm-30.662 0h-3.024c-.606 4.845-.405 16.374-.15 19.92h3.22c-.253-4.175-.62-11.828-.045-19.92zm.654 19.92h4.08c.1-4.96.51-13.222 2.01-19.92H40.41c-1.644 6.784-2.19 15.008-2.368 19.92z"/></g></svg>