<?xml version="1.0" encoding="utf-8"?>
<!DOCTYPE svg PUBLIC "-//W3C//DTD SVG 1.1//EN" "http://www.w3.org/Graphics/SVG/1.1/DTD/svg11.dtd">
<svg version="1.1" id="cyberplat_logo" xmlns="http://www.w3.org/2000/svg" xmlns:xlink="http://www.w3.org/1999/xlink" x="0px"
	 y="0px" width="111.5px" height="81px" viewBox="0 0 111.5 81" enable-background="new 0 0 111.5 81" xml:space="preserve">
<filter  id="shadow">
	<feGaussianBlur  stdDeviation="2"></feGaussianBlur>
</filter>
<g opacity="0.2" filter="url(#shadow)" enable-background="new    ">
	<path fill="#020202" d="M55.878,78C26.484,78,2.571,62.522,2.571,43.499C2.571,24.476,26.484,9,55.878,9
		c29.392,0,53.306,15.476,53.306,34.499C109.184,62.522,85.27,78,55.878,78z"/>
</g>
<g>
	<path fill="#FFFFFF" d="M55.878,73C26.445,73,2.5,57.522,2.5,38.499C2.5,19.476,26.445,4,55.878,4s53.377,15.476,53.377,34.499
		C109.255,57.522,85.311,73,55.878,73z"/>
	<path id="oval" fill="#00529C" d="M55.878,6C27.547,6,4.5,20.58,4.5,38.499C4.5,56.419,27.547,71,55.878,71
		c28.332,0,51.377-14.581,51.377-32.501C107.255,20.58,84.21,6,55.878,6z"/>
	<path id="name" fill="#FFFFFF" d="M22.792,38.361l-1.045,4.878c-0.091,0.369-0.551,0.675-0.888,0.675
		c-0.336,0-0.646-0.275-0.554-0.675l3.438-16.171c0.062-0.337,0.551-0.707,0.829-0.707c0.245,0,0.705,0.245,0.613,0.707
		l-0.892,4.202h3.039l0.8-3.743c0.121-0.613,0.212-1.076,0.212-1.596c0-1.533-1.409-1.533-2.269-1.533h-2.087
		c-2.731,0-3.101,1.812-3.375,3.159l-3.224,15.099c-0.122,0.617-0.184,1.075-0.184,1.66c0,1.66,1.072,1.563,2.21,1.563h2.087
		c2.885,0,3.189-2.209,3.405-3.188l0.919-4.328H22.792L22.792,38.361z M36.23,28.694h-2.576l-3.131,14.761
		c-0.03,0.153-0.122,0.583-0.706,0.583c-0.245,0-0.616-0.184-0.521-0.583l3.131-14.762h-2.58L26.75,43.21
		c-0.092,0.491-0.125,0.921-0.125,1.38c0,0.768,0.492,1.288,1.258,1.288c0.921,0,1.78-0.487,2.332-1.072l-0.95,4.606
		c-0.03,0.153-0.092,0.521-0.676,0.521c-0.459,0-0.612-0.276-0.551-0.521l0.275-1.383h-2.579l-0.151,0.802
		c-0.092,0.55-0.092,0.95-0.092,1.411c0,1.165,1.196,1.228,1.901,1.228h1.567c2.422,0,2.885-2.18,3.097-3.164L36.23,28.694
		L36.23,28.694z M41.878,24.398h-2.576l-4.573,21.479h2.577l0.155-0.704c0.737,0.772,1.379,0.894,1.717,0.894
		c1.717,0,2.242-1.689,2.425-2.55l2.668-12.493c0.125-0.55,0.184-0.949,0.184-1.442c0-0.92-0.734-1.072-1.501-1.072
		c-0.492,0-1.197,0.213-2.151,0.859L41.878,24.398L41.878,24.398z M40.406,31.241c0.06-0.245,0.43-0.583,0.734-0.583
		c0.646,0,0.521,0.429,0.492,0.583l-2.547,12.09c-0.03,0.124-0.122,0.583-0.738,0.583c-0.245,0-0.579-0.213-0.488-0.583
		L40.406,31.241L40.406,31.241z M48.353,39.862l-0.797,3.655c-0.062,0.337-0.43,0.521-0.768,0.521c-0.368,0-0.521-0.278-0.462-0.521
		l1.167-5.373h3.804l1.472-6.935c0.308-1.381-0.335-2.515-1.931-2.515h-1.596c-1.413,0-2.518,0.86-2.884,2.548l-2.58,12.122
		c-0.092,0.46-0.092,0.83-0.092,1.226c0,1.288,1.045,1.288,1.904,1.288h1.596c0.859,0,2.485-0.092,3.006-2.547l0.737-3.469H48.353
		L48.353,39.862z M47.832,36.428l1.167-5.368c0.03-0.185,0.247-0.525,0.646-0.525c0.368,0,0.643,0.187,0.581,0.525l-1.164,5.368
		H47.832L47.832,36.428z M54.368,45.878l3.1-14.607c0.093-0.428,0.585-0.612,0.77-0.612c0.212,0,0.549,0.184,0.457,0.612
		l-0.675,3.255h2.579l0.801-3.775c0.06-0.338,0.151-0.646,0.151-0.98c0-0.771-0.333-1.26-1.196-1.26
		c-0.859,0-1.443,0.276-2.488,0.889l0.153-0.706h-2.575l-3.652,17.184H54.368L54.368,45.878z M59.984,45.878h3.04l1.627-7.67h1.688
		c2.699,0,3.191-1.996,3.469-3.284l1.562-7.395c0.125-0.613,0.185-1.076,0.185-1.596c0-1.625-1.5-1.533-2.268-1.533h-4.729
		L59.984,45.878L59.984,45.878z M65.079,36.244l2.09-9.882h0.396c0.37,0,1.011,0.154,0.8,1.104l-1.659,7.733
		c-0.154,0.708-0.676,1.045-1.261,1.045H65.079L65.079,36.244z M69.252,45.878h2.581l4.572-21.479h-2.579L69.252,45.878
		L69.252,45.878z M76.526,33.852h2.58l0.58-2.764c0.063-0.304,0.492-0.554,0.737-0.554c0.215,0,0.583,0.124,0.492,0.554l-0.646,3.04
		c-0.275,1.318-1.505,1.717-2.547,2.209c-1.779,0.859-2.147,1.964-2.27,2.548l-1.011,4.785c-0.097,0.371-0.125,0.709-0.125,1.074
		c0,0.985,0.399,1.324,1.228,1.324c1.073,0,1.965-0.585,2.422-1.047l-0.182,0.858h2.575l3.192-14.943
		c0.245-1.164-0.367-2.24-1.751-2.24h-1.747c-0.859,0-2.426,0.122-2.884,2.24L76.526,33.852L76.526,33.852z M78.336,43.239
		c-0.12,0.521-0.521,0.675-0.768,0.675c-0.396,0-0.521-0.427-0.459-0.675l1.012-4.665c0.155-0.767,0.122-1.072,1.597-1.84
		L78.336,43.239L78.336,43.239z M85.059,30.534h1.381l-2.702,12.739c-0.549,2.674,1.382,2.604,2.21,2.604h1.688l0.399-1.839h-0.923
		c-0.919,0-0.766-0.829-0.703-1.138l2.605-12.367h1.872l0.399-1.84h-1.871l0.92-4.296h-2.576l-0.921,4.296h-1.384L85.059,30.534
		L85.059,30.534z"/>
	<path id="line" fill="#FFFFFF" d="M17.161,48.3h7.768l-0.343,2.267h-7.425V48.3L17.161,48.3z M32.813,48.3h58.655v2.267h-59.17
		L32.813,48.3L32.813,48.3z"/>
	<path id="rt_symbol" fill="#FFFFFF" d="M98.487,41.561c0-2.61-2.13-4.739-4.739-4.739c-2.623,0-4.754,2.129-4.739,4.739
		c0,2.619,2.116,4.74,4.739,4.74C96.357,46.288,98.487,44.18,98.487,41.561L98.487,41.561z M97.936,41.561
		c0,2.318-1.881,4.188-4.188,4.188c-2.322,0.014-4.188-1.87-4.188-4.178c-0.015-2.317,1.865-4.201,4.173-4.201
		C96.055,37.369,97.936,39.254,97.936,41.561L97.936,41.561z M91.977,44.031h0.673v-2.237h1.718c1.086,0,0.781,0.959,0.892,1.576
		l0.111,0.661h0.796c-0.288-0.455-0.193-0.564-0.246-1.253c-0.082-0.907-0.098-0.985-0.634-1.33c0.51-0.385,0.718-0.635,0.688-1.306
		c-0.068-1.182-0.851-1.332-1.662-1.332h-2.334v5.221H91.977z M94.325,39.405c0.414,0,1.058,0.109,0.959,1
		c-0.067,0.673-0.506,0.797-0.959,0.797h-1.676v-1.799h1.676V39.405z"/>
</g>
</svg>
