<?xml version="1.0" encoding="utf-8"?>
<!-- Generator: Adobe Illustrator 15.1.0, SVG Export Plug-In . SVG Version: 6.00 Build 0)  -->
<!DOCTYPE svg PUBLIC "-//W3C//DTD SVG 1.1//EN" "http://www.w3.org/Graphics/SVG/1.1/DTD/svg11.dtd">
<svg version="1.1" id="success" xmlns="http://www.w3.org/2000/svg" xmlns:xlink="http://www.w3.org/1999/xlink" x="0px" y="0px"
	 width="24px" height="24px" viewBox="0 0 24 24" enable-background="new 0 0 24 24" xml:space="preserve">
<g>
	<path fill="#2B8F0E" d="M20.5,22.5h-18c-0.63,0-1.15-0.275-1.425-0.757c-0.275-0.48-0.25-1.068,0.07-1.612l8.987-15.276
		c0.634-1.079,2.103-1.079,2.738,0l8.986,15.276c0.319,0.545,0.345,1.133,0.069,1.613S21.13,22.5,20.5,22.5z M20.5,20.501V21.5
		l0.007-1C20.505,20.5,20.502,20.5,20.5,20.501z M3.248,20.5h16.504L11.5,6.473L3.248,20.5z"/>
</g>
<g>
	<path fill="#2B8F0E" d="M11.5,15.5c-0.552,0-1-0.447-1-1v-4c0-0.552,0.448-1,1-1s1,0.448,1,1v4C12.5,15.053,12.052,15.5,11.5,15.5z
		"/>
</g>
<g id="circle1_4_">
	<circle fill="#2B8F0E" cx="11.5" cy="18" r="1.5"/>
</g>
</svg>
