<?xml version="1.0" encoding="utf-8"?>
<!-- Generator: Adobe Illustrator 15.1.0, SVG Export Plug-In . SVG Version: 6.00 Build 0)  -->
<!DOCTYPE svg PUBLIC "-//W3C//DTD SVG 1.1//EN" "http://www.w3.org/Graphics/SVG/1.1/DTD/svg11.dtd">
<svg version="1.1" id="success" xmlns="http://www.w3.org/2000/svg" xmlns:xlink="http://www.w3.org/1999/xlink" x="0px" y="0px"
	 width="24px" height="24px" viewBox="0 0 24 24" enable-background="new 0 0 24 24" xml:space="preserve">
<path d="M21.025,2.649c-0.295-0.183-0.663-0.198-0.973-0.044L11.5,6.882L2.947,2.605c-0.31-0.154-0.678-0.139-0.973,0.044
	C1.68,2.832,1.5,3.153,1.5,3.5v14.625c0,0.379,0.214,0.725,0.553,0.895l9,4.5c0.014,0.007,0.029,0.004,0.044,0.011
	c0.127,0.056,0.262,0.094,0.402,0.095H11.5l0,0c0.001,0,0.001,0,0.001,0c0.001,0,0.001,0,0.001,0
	c0.138-0.001,0.271-0.038,0.398-0.095c0.016-0.007,0.032-0.003,0.047-0.011l9-4.5c0.339-0.17,0.553-0.516,0.553-0.895V3.5
	C21.5,3.153,21.32,2.832,21.025,2.649z M10.5,21.007l-7-3.5V5.118l7,3.5V21.007z M19.5,17.507l-7,3.5V8.618l7-3.5V17.507z"/>
</svg>
