<?xml version="1.0" encoding="utf-8"?>
<!-- Generator: Adobe Illustrator 15.1.0, SVG Export Plug-In . SVG Version: 6.00 Build 0)  -->
<!DOCTYPE svg PUBLIC "-//W3C//DTD SVG 1.1//EN" "http://www.w3.org/Graphics/SVG/1.1/DTD/svg11.dtd">
<svg version="1.1" id="success" xmlns="http://www.w3.org/2000/svg" xmlns:xlink="http://www.w3.org/1999/xlink" x="0px" y="0px"
	 width="24px" height="24px" viewBox="0 0 24 24" enable-background="new 0 0 24 24" xml:space="preserve">
<g>
	<path fill="#2B8F0E" d="M4.089,10.5h3.37L5.357,8.398C6.825,6.632,9.029,5.5,11.5,5.5c4.411,0,8,3.589,8,8h2
		c0-5.514-4.486-10-10-10c-3.022,0-5.731,1.351-7.566,3.476L1.5,4.542V10.5h0.461H4.089z"/>
	<path fill="#2B8F0E" d="M18.911,16.5H15.5l2.123,2.123C16.155,20.376,13.96,21.5,11.5,21.5c-4.411,0-8-3.589-8-8h-2
		c0,5.514,4.486,10,10,10c3.012,0,5.711-1.342,7.546-3.455l2.413,2.413V16.5h-0.42H18.911z"/>
</g>
</svg>
