<?xml version="1.0" encoding="utf-8"?>
<!-- Generator: Adobe Illustrator 15.1.0, SVG Export Plug-In . SVG Version: 6.00 Build 0)  -->
<!DOCTYPE svg PUBLIC "-//W3C//DTD SVG 1.1//EN" "http://www.w3.org/Graphics/SVG/1.1/DTD/svg11.dtd">
<svg version="1.1" id="success" xmlns="http://www.w3.org/2000/svg" xmlns:xlink="http://www.w3.org/1999/xlink" x="0px" y="0px"
	 width="24px" height="24px" viewBox="0 0 24 24" enable-background="new 0 0 24 24" xml:space="preserve">
<g>
	<rect x="6.5" y="10.5" fill="#2B8F0E" width="10" height="2"/>
	<rect x="6.5" y="14.5" fill="#2B8F0E" width="5" height="2"/>
	<path fill="#2B8F0E" d="M18.5,3.5h-2v2h2l-0.003,16H4.5v-16h2v-2h-2c-1.103,0-2,0.897-2,2v16c0,1.103,0.897,2,2,2h14
		c1.103,0,2-0.897,2-2v-16C20.5,4.397,19.603,3.5,18.5,3.5z"/>
	<path fill="#2B8F0E" d="M8.5,7.5h6c0.553,0,1-0.448,1-1v-2c0-2.206-1.794-4-4-4c-2.206,0-4,1.794-4,4v2
		C7.5,7.052,7.948,7.5,8.5,7.5z M9.5,4.5c0-1.103,0.897-2,2-2c1.103,0,2,0.897,2,2v1h-4V4.5z"/>
</g>
</svg>
