<?xml version="1.0" encoding="utf-8"?>
<!-- Generator: Adobe Illustrator 15.1.0, SVG Export Plug-In . SVG Version: 6.00 Build 0)  -->
<!DOCTYPE svg PUBLIC "-//W3C//DTD SVG 1.1//EN" "http://www.w3.org/Graphics/SVG/1.1/DTD/svg11.dtd">
<svg version="1.1" id="success" xmlns="http://www.w3.org/2000/svg" xmlns:xlink="http://www.w3.org/1999/xlink" x="0px" y="0px"
	 width="24px" height="24px" viewBox="0 0 24 24" enable-background="new 0 0 24 24" xml:space="preserve">
<g>
	<path d="M19.5,4.5h-5v2h5l-0.003,15H3.5v-15h5v-2h-5c-1.103,0-2,0.897-2,2v15c0,1.103,0.897,2,2,2h16c1.103,0,2-0.897,2-2v-15
		C21.5,5.397,20.603,4.5,19.5,4.5z"/>
	<path d="M7.207,11.793c-0.391-0.391-1.023-0.391-1.414,0s-0.391,1.023,0,1.414l5,5c0.195,0.195,0.451,0.293,0.707,0.293
		s0.512-0.098,0.707-0.293l5-5c0.391-0.391,0.391-1.023,0-1.414s-1.023-0.391-1.414,0L12.5,15.086V4.5h-2v10.586L7.207,11.793z"/>
</g>
</svg>
