<?xml version="1.0" encoding="utf-8"?>
<!DOCTYPE svg PUBLIC "-//W3C//DTD SVG 1.1//EN" "http://www.w3.org/Graphics/SVG/1.1/DTD/svg11.dtd">
<svg version="1.1" id="cyberplat_logo" xmlns="http://www.w3.org/2000/svg" xmlns:xlink="http://www.w3.org/1999/xlink" x="0px"
	 y="0px" width="113px" height="81px" viewBox="9.25 88 113 81" enable-background="new 9.25 88 113 81" xml:space="preserve">
<filter  id="shadow">
	<feGaussianBlur  stdDeviation="2"></feGaussianBlur>
</filter>
<g opacity="0.25" filter="url(#shadow)" enable-background="new    ">
	<path fill="#020202" d="M65.878,166c-29.394,0-53.307-15.479-53.307-34.501S36.484,97,65.878,97
		c29.392,0,53.306,15.477,53.306,34.499S95.27,166,65.878,166z"/>
</g>
<g>
	<path fill="#FFFFFF" d="M65.628,161c-29.433,0-53.378-15.479-53.378-34.501S36.195,92,65.628,92
		c29.433,0,53.377,15.477,53.377,34.499S95.061,161,65.628,161z"/>
	<path id="oval" fill="#00529C" d="M65.628,94c-28.331,0-51.378,14.58-51.378,32.499c0,17.92,23.047,32.501,51.378,32.501
		c28.332,0,51.377-14.581,51.377-32.501C117.005,108.58,93.96,94,65.628,94z"/>
</g>
<g id="logo_cyberft">
	<path id="C" fill="#FFFFFF" d="M41.641,126.794l-1.006,4.729c-0.235,1.072-0.57,3.486-3.724,3.486h-2.28
		c-1.241,0-2.415,0.102-2.415-1.709c0-0.637,0.068-1.141,0.201-1.811l3.521-16.501c0.302-1.476,0.705-3.454,3.69-3.454h2.279
		c0.938,0,2.482,0,2.482,1.678c0,0.568-0.101,1.071-0.235,1.743l-0.871,4.091h-3.32l0.972-4.595
		c0.102-0.503-0.401-0.771-0.671-0.771c-0.301,0-0.838,0.402-0.905,0.771l-3.756,17.675c-0.102,0.436,0.235,0.738,0.604,0.738
		c0.369,0,0.872-0.338,0.973-0.738l1.14-5.333H41.641z"/>
	<path id="y" fill="#FFFFFF" d="M48.449,137.66c-0.234,1.072-0.737,3.455-3.388,3.455h-1.71c-0.77,0-2.08-0.068-2.08-1.342
		c0-0.504,0-0.939,0.102-1.543l0.169-0.875h2.816l-0.303,1.512c-0.066,0.27,0.101,0.568,0.604,0.568c0.637,0,0.704-0.4,0.738-0.568
		l1.04-5.031c-0.605,0.639-1.544,1.174-2.55,1.174c-0.839,0-1.375-0.57-1.375-1.408c0-0.502,0.034-0.973,0.135-1.51l3.386-15.862
		h2.818l-3.421,16.13c-0.101,0.438,0.303,0.637,0.569,0.637c0.639,0,0.738-0.469,0.772-0.637l3.421-16.13h2.817L48.449,137.66z"/>
	<path id="b" fill="#FFFFFF" d="M58.011,116.968c1.039-0.704,1.812-0.938,2.347-0.938c0.839,0,1.645,0.167,1.645,1.174
		c0,0.535-0.068,0.973-0.202,1.576l-2.917,13.646c-0.202,0.941-0.771,2.785-2.649,2.785c-0.369,0-1.073-0.135-1.879-0.973
		l-0.167,0.771H51.37l4.996-23.475h2.817L58.011,116.968z M54.79,132.227c-0.101,0.402,0.27,0.639,0.537,0.639
		c0.672,0,0.771-0.506,0.805-0.639l2.783-13.213c0.034-0.168,0.169-0.636-0.536-0.636c-0.335,0-0.738,0.367-0.805,0.636
		L54.79,132.227z"/>
	<path id="e" fill="#FFFFFF" d="M69.079,128.438l-0.806,3.789c-0.569,2.682-2.348,2.783-3.286,2.783h-1.745
		c-0.938,0-2.078,0-2.078-1.408c0-0.436,0-0.838,0.101-1.34l2.817-13.248c0.402-1.844,1.608-2.784,3.152-2.784h1.744
		c1.743,0,2.447,1.241,2.113,2.75l-1.61,7.581h-4.159l-1.274,5.865c-0.067,0.271,0.101,0.57,0.504,0.57
		c0.368,0,0.771-0.199,0.838-0.57l0.871-3.988H69.079z M67.032,124.682l1.275-5.869c0.067-0.369-0.236-0.57-0.638-0.57
		c-0.436,0-0.671,0.369-0.705,0.57l-1.274,5.869H67.032z"/>
	<path id="r" fill="#FFFFFF" d="M70.019,135.01l3.992-18.78h2.818l-0.171,0.772c1.142-0.671,1.779-0.973,2.718-0.973
		c0.94,0,1.31,0.536,1.31,1.376c0,0.368-0.1,0.702-0.168,1.072l-0.872,4.124h-2.816l0.736-3.555
		c0.102-0.469-0.268-0.669-0.501-0.669c-0.204,0-0.741,0.2-0.839,0.669l-3.391,15.963H70.019z"/>
	<path id="F" fill="#FFFFFF" d="M84.098,111.535h6.775l-0.469,2.246h-3.456l-1.743,8.083h3.052l-0.469,2.247h-3.051l-2.316,10.898
		h-3.32L84.098,111.535z"/>
	<path id="T" fill="#FFFFFF" d="M94.132,113.781h-2.515l0.468-2.246h8.353l-0.47,2.246h-2.516l-4.527,21.229h-3.32L94.132,113.781z"
		/>
</g>
</svg>
