<?xml version="1.0" encoding="utf-8"?>
<!-- Generator: Adobe Illustrator 15.1.0, SVG Export Plug-In . SVG Version: 6.00 Build 0)  -->
<!DOCTYPE svg PUBLIC "-//W3C//DTD SVG 1.1//EN" "http://www.w3.org/Graphics/SVG/1.1/DTD/svg11.dtd">
<svg version="1.1" id="cyberplat_logo" xmlns="http://www.w3.org/2000/svg" xmlns:xlink="http://www.w3.org/1999/xlink" x="0px"
	 y="0px" width="103px" height="65px" viewBox="0 0 103 65" enable-background="new 0 0 103 65" xml:space="preserve">
<g>
	<g>
		<path id="oval" fill="#00529C" d="M51.378,0C23.047,0,0,14.58,0,32.499C0,50.419,23.047,65,51.378,65
			c28.332,0,51.377-14.581,51.377-32.501C102.755,14.58,79.71,0,51.378,0z"/>
	</g>
	<g id="logo_cyberft">
		<path id="C" fill="#FFFFFF" d="M27.391,32.794l-1.006,4.729c-0.235,1.072-0.57,3.486-3.724,3.486h-2.28
			c-1.241,0-2.415,0.102-2.415-1.71c0-0.637,0.068-1.141,0.201-1.812l3.521-16.5c0.302-1.477,0.705-3.454,3.69-3.454h2.279
			c0.938,0,2.482,0,2.482,1.678c0,0.567-0.101,1.071-0.235,1.743l-0.871,4.091h-3.32l0.972-4.595
			c0.102-0.504-0.401-0.771-0.671-0.771c-0.301,0-0.838,0.402-0.905,0.771l-3.756,17.675c-0.102,0.437,0.235,0.737,0.604,0.737
			s0.872-0.338,0.973-0.737l1.14-5.333L27.391,32.794L27.391,32.794z"/>
		<path id="y" fill="#FFFFFF" d="M34.199,43.66c-0.234,1.072-0.737,3.455-3.388,3.455h-1.71c-0.77,0-2.08-0.068-2.08-1.342
			c0-0.504,0-0.939,0.102-1.543l0.169-0.875h2.816l-0.303,1.512c-0.066,0.27,0.101,0.568,0.604,0.568c0.637,0,0.704-0.4,0.738-0.568
			l1.04-5.031c-0.605,0.639-1.544,1.174-2.55,1.174c-0.839,0-1.375-0.57-1.375-1.408c0-0.502,0.034-0.973,0.135-1.51l3.386-15.861
			h2.818L31.18,38.359c-0.101,0.438,0.303,0.638,0.569,0.638c0.639,0,0.738-0.47,0.772-0.638l3.421-16.129h2.817L34.199,43.66z"/>
		<path id="b" fill="#FFFFFF" d="M43.761,22.969c1.039-0.705,1.813-0.939,2.347-0.939c0.84,0,1.646,0.168,1.646,1.175
			c0,0.534-0.067,0.974-0.202,1.575l-2.917,13.646c-0.202,0.941-0.771,2.785-2.649,2.785c-0.369,0-1.073-0.135-1.879-0.973
			l-0.167,0.771H37.12l4.996-23.475h2.817L43.761,22.969z M40.54,38.227c-0.101,0.402,0.27,0.64,0.537,0.64
			c0.672,0,0.771-0.507,0.805-0.64l2.783-13.213c0.034-0.168,0.169-0.636-0.536-0.636c-0.335,0-0.738,0.367-0.805,0.636
			L40.54,38.227z"/>
		<path id="e" fill="#FFFFFF" d="M54.829,34.438l-0.806,3.789c-0.569,2.683-2.349,2.783-3.287,2.783h-1.744
			c-0.938,0-2.078,0-2.078-1.408c0-0.436,0-0.838,0.102-1.34l2.816-13.248c0.402-1.844,1.607-2.783,3.152-2.783h1.744
			c1.742,0,2.446,1.24,2.112,2.75l-1.61,7.58h-4.158l-1.274,5.865c-0.067,0.271,0.101,0.57,0.504,0.57
			c0.368,0,0.771-0.199,0.839-0.57l0.87-3.988H54.829z M52.782,30.682l1.274-5.869c0.067-0.369-0.236-0.569-0.638-0.569
			c-0.437,0-0.671,0.368-0.705,0.569l-1.274,5.869H52.782z"/>
		<path id="r" fill="#FFFFFF" d="M55.77,41.01l3.991-18.779h2.818l-0.171,0.771c1.142-0.671,1.779-0.973,2.718-0.973
			c0.94,0,1.31,0.535,1.31,1.375c0,0.369-0.1,0.703-0.168,1.072l-0.871,4.125H62.58l0.736-3.556
			c0.102-0.469-0.269-0.669-0.502-0.669c-0.203,0-0.74,0.2-0.838,0.669L58.585,41.01H55.77L55.77,41.01z"/>
		<path id="F" fill="#FFFFFF" d="M69.848,17.535h6.775l-0.469,2.246h-3.456l-1.743,8.082h3.052l-0.469,2.248h-3.052L68.171,41.01
			h-3.319L69.848,17.535z"/>
		<path id="T" fill="#FFFFFF" d="M79.882,19.781h-2.515l0.468-2.246h8.353l-0.47,2.246h-2.516L78.675,41.01h-3.319L79.882,19.781z"
			/>
	</g>
</g>
</svg>
