<?xml version="1.0" encoding="utf-8"?>
<!-- Generator: Adobe Illustrator 15.1.0, SVG Export Plug-In . SVG Version: 6.00 Build 0)  -->
<!DOCTYPE svg PUBLIC "-//W3C//DTD SVG 1.1//EN" "http://www.w3.org/Graphics/SVG/1.1/DTD/svg11.dtd">
<svg version="1.1" id="success" xmlns="http://www.w3.org/2000/svg" xmlns:xlink="http://www.w3.org/1999/xlink" x="0px" y="0px"
	 width="24px" height="24px" viewBox="0 0 24 24" enable-background="new 0 0 24 24" xml:space="preserve">
<g>
	<path fill="#2B8F0E" d="M20.5,8.5h-18c-1.103,0-2,0.897-2,2v11c0,1.103,0.897,2,2,2h18c1.103,0,2-0.897,2-2v-11
		C22.5,9.397,21.603,8.5,20.5,8.5z M2.5,10.5h18l-0.001,3.004C20.495,14.502,18.628,15.5,16.5,15.5h-10c-2.131,0-4-1-4-2V10.5z
		 M2.5,21.5v-5.098c1.063,0.663,2.462,1.098,4,1.098h3.592c0.207,0.581,0.756,1,1.408,1s1.201-0.419,1.408-1H16.5
		c1.537,0,2.936-0.435,3.998-1.097L20.497,21.5H2.5z"/>
	<path fill="#2B8F0E" d="M8.5,5.5h6v2h2v-3c0-0.552-0.447-1-1-1h-8c-0.552,0-1,0.448-1,1v3h2V5.5z"/>
</g>
</svg>
