<?xml version="1.0" encoding="utf-8"?>
<!-- Generator: Adobe Illustrator 15.1.0, SVG Export Plug-In . SVG Version: 6.00 Build 0)  -->
<!DOCTYPE svg PUBLIC "-//W3C//DTD SVG 1.1//EN" "http://www.w3.org/Graphics/SVG/1.1/DTD/svg11.dtd">
<svg version="1.1" id="success" xmlns="http://www.w3.org/2000/svg" xmlns:xlink="http://www.w3.org/1999/xlink" x="0px" y="0px"
	 width="24px" height="24px" viewBox="0 0 24 24" enable-background="new 0 0 24 24" xml:space="preserve">
<path fill="#2B8F0E" d="M20.913,22.5l-3.388-3.389c1.232-1.54,1.975-3.489,1.975-5.61c0-4.963-4.037-9.001-9-9.001
	c-4.963,0-9,4.038-9,9.001c0,4.962,4.038,8.999,9,8.999c2.122,0,4.071-0.742,5.611-1.975l3.388,3.389L20.913,22.5z M3.5,13.501
	c0-3.86,3.141-7.001,7-7.001s7,3.141,7,7.001c0,3.859-3.14,6.999-7,6.999S3.5,17.36,3.5,13.501z"/>
</svg>
