<?xml version="1.0" encoding="utf-8"?>
<!-- Generator: Adobe Illustrator 15.1.0, SVG Export Plug-In . SVG Version: 6.00 Build 0)  -->
<!DOCTYPE svg PUBLIC "-//W3C//DTD SVG 1.1//EN" "http://www.w3.org/Graphics/SVG/1.1/DTD/svg11.dtd">
<svg version="1.1" id="success" xmlns="http://www.w3.org/2000/svg" xmlns:xlink="http://www.w3.org/1999/xlink" x="0px" y="0px"
	 width="24px" height="24px" viewBox="0 0 24 24" enable-background="new 0 0 24 24" xml:space="preserve">
<g>
	<g id="circle1_1_">
		<circle fill="#2B8F0E" cx="15.844" cy="9.083" r="1.5"/>
	</g>
	<g>
		<g>
			<path fill="#2B8F0E" d="M7.521,22.191h-5.22l-2.085-3.297l7.399-7.012c-0.138-0.579-0.208-1.168-0.208-1.76
				c0-4.203,3.419-7.623,7.622-7.623c4.204,0,7.624,3.42,7.624,7.623s-3.42,7.623-7.624,7.623c-0.815,0-1.614-0.128-2.38-0.381
				l-1.476,1.389H9.495v1.579L7.521,22.191z M3.402,20.191h3.326l0.767-0.722v-2.716h2.885l1.83-1.723l0.603,0.259
				c0.703,0.303,1.448,0.456,2.216,0.456c3.102,0,5.624-2.522,5.624-5.623S18.13,4.5,15.028,4.5c-3.1,0-5.622,2.522-5.622,5.623
				c0,0.592,0.096,1.184,0.285,1.757l0.198,0.603l-7.104,6.732L3.402,20.191z"/>
		</g>
	</g>
</g>
</svg>
