<?xml version="1.0" encoding="utf-8"?>
<!-- Generator: Adobe Illustrator 15.1.0, SVG Export Plug-In . SVG Version: 6.00 Build 0)  -->
<!DOCTYPE svg PUBLIC "-//W3C//DTD SVG 1.1//EN" "http://www.w3.org/Graphics/SVG/1.1/DTD/svg11.dtd">
<svg version="1.1" id="success" xmlns="http://www.w3.org/2000/svg" xmlns:xlink="http://www.w3.org/1999/xlink" x="0px" y="0px"
	 width="24px" height="24px" viewBox="0 0 24 24" enable-background="new 0 0 24 24" xml:space="preserve">
<g>
	<path fill="#2B8F0E" d="M20.5,9.5h-3v-3c0-2.355-2.145-4-5.215-4h-1.65C7.612,2.5,5.5,4.145,5.5,6.5v1h2v-1
		c0-1.578,1.971-2,3.135-2h1.65c1.193,0,3.215,0.422,3.215,2v3h-13c-0.552,0-1,0.447-1,1v7c0,3.309,2.691,6,6,6h8
		c3.309,0,6-2.691,6-6v-7C21.5,9.947,21.053,9.5,20.5,9.5z M19.5,17.5c0,2.205-1.794,4-4,4h-8c-2.206,0-4-1.795-4-4v-6h16V17.5z"/>
	<path fill="#2B8F0E" d="M10.5,16.111V18.5h2v-2.389c0.305-0.273,0.5-0.668,0.5-1.109c0-0.83-0.672-1.502-1.5-1.502
		c-0.829,0-1.5,0.672-1.5,1.502C10,15.443,10.195,15.838,10.5,16.111z"/>
</g>
</svg>
