<?xml version="1.0" encoding="utf-8"?>
<!-- Generator: Adobe Illustrator 15.1.0, SVG Export Plug-In . SVG Version: 6.00 Build 0)  -->
<!DOCTYPE svg PUBLIC "-//W3C//DTD SVG 1.1//EN" "http://www.w3.org/Graphics/SVG/1.1/DTD/svg11.dtd">
<svg version="1.1" id="success" xmlns="http://www.w3.org/2000/svg" xmlns:xlink="http://www.w3.org/1999/xlink" x="0px" y="0px"
	 width="24px" height="24px" viewBox="0 0 24 24" enable-background="new 0 0 24 24" xml:space="preserve">
<path d="M20.5,6.5h-18c-1.103,0-2,0.897-2,2v12c0,1.103,0.897,2,2,2h18c1.103,0,2-0.897,2-2v-12C22.5,7.397,21.603,6.5,20.5,6.5z
	 M18.995,8.5L11.5,15.162L4.005,8.5H18.995z M2.5,20.5V9.838l8.335,7.409c0.189,0.169,0.427,0.253,0.665,0.253
	s0.475-0.084,0.665-0.253L20.5,9.838L20.497,20.5H2.5z"/>
</svg>
