<?xml version="1.0" encoding="utf-8"?>
<!-- Generator: Adobe Illustrator 15.1.0, SVG Export Plug-In . SVG Version: 6.00 Build 0)  -->
<!DOCTYPE svg PUBLIC "-//W3C//DTD SVG 1.1//EN" "http://www.w3.org/Graphics/SVG/1.1/DTD/svg11.dtd">
<svg version="1.1" id="success" xmlns="http://www.w3.org/2000/svg" xmlns:xlink="http://www.w3.org/1999/xlink" x="0px" y="0px"
	 width="24px" height="24px" viewBox="0 0 24 24" enable-background="new 0 0 24 24" xml:space="preserve">
<path fill="#2B8F0E" d="M20.324,4.538c0.023-0.67-0.632-1.192-1.286-0.996L1.204,9.077C0.822,9.195,0.548,9.529,0.506,9.926
	c-0.042,0.397,0.155,0.781,0.503,0.977l7.623,4.298l4.296,7.622c0.179,0.316,0.513,0.509,0.871,0.509
	c0.035,0,0.07-0.002,0.105-0.006c0.397-0.042,0.731-0.316,0.85-0.697L20.29,4.793C20.302,4.708,20.313,4.623,20.324,4.538
	C20.326,4.483,20.322,4.596,20.324,4.538z M15.766,6.652l-6.57,6.571L4.011,10.3L15.766,6.652z M13.531,19.82l-2.922-5.184
	l6.57-6.57L13.531,19.82z"/>
</svg>
