<?xml version="1.0" encoding="utf-8"?>
<!-- Generator: Adobe Illustrator 15.1.0, SVG Export Plug-In . SVG Version: 6.00 Build 0)  -->
<!DOCTYPE svg PUBLIC "-//W3C//DTD SVG 1.1//EN" "http://www.w3.org/Graphics/SVG/1.1/DTD/svg11.dtd">
<svg version="1.1" id="success" xmlns="http://www.w3.org/2000/svg" xmlns:xlink="http://www.w3.org/1999/xlink" x="0px" y="0px"
	 width="24px" height="24px" viewBox="0 0 24 24" enable-background="new 0 0 24 24" xml:space="preserve">
<g>
	<g>
		<rect x="7.5" y="12.5" width="2" height="3"/>
	</g>
	<g>
		<rect x="11.5" y="10.5" width="2" height="5"/>
	</g>
	<g>
		<rect x="15.5" y="8.5" width="2" height="7"/>
	</g>
</g>
<g>
	<path d="M20.5,19.5h-16c-1.103,0-2-0.897-2-2v-11c0-1.103,0.897-2,2-2h16c1.103,0,2,0.897,2,2v11
		C22.5,18.603,21.603,19.5,20.5,19.5z M20.5,17.5v1V17.5L20.5,17.5L20.5,17.5z M4.5,6.5v11h16v-11H4.5z"/>
</g>
<g>
	<rect x="0.5" y="21.5" width="24" height="2"/>
</g>
</svg>
