<?xml version="1.0" encoding="utf-8"?>
<!-- Generator: Adobe Illustrator 15.1.0, SVG Export Plug-In . SVG Version: 6.00 Build 0)  -->
<!DOCTYPE svg PUBLIC "-//W3C//DTD SVG 1.1//EN" "http://www.w3.org/Graphics/SVG/1.1/DTD/svg11.dtd">
<svg version="1.1" id="Слой_1" xmlns="http://www.w3.org/2000/svg" xmlns:xlink="http://www.w3.org/1999/xlink" x="0px" y="0px"
	 width="162px" height="50px" viewBox="0 0 162 50" enable-background="new 0 0 162 50" xml:space="preserve">
<g>
	<g>
		<path fill="#00A55D" d="M94.341,30.802c-1.139,0.169-1.395,0.881-1.395,1.619v14.623c0,0.738,0.256,1.453,1.395,1.619v1.027
			h-7.084v-1.027c1.138-0.2,1.422-0.938,1.422-1.619V31.283H80.26v15.761c0,0.285,0.027,1.419,1.393,1.619v1.027H74.57v-1.027
			c0.6-0.056,1.422-0.426,1.422-1.619V32.421c0-1.194-0.822-1.565-1.422-1.619v-1.024h19.771V30.802z"/>
		<path fill="#00A55D" d="M118.753,39.791c0,5.602-4.21,10.209-10.041,10.209c-5.83,0-10.041-4.607-10.041-10.209
			c0-5.775,4.295-10.328,10.041-10.328C114.456,29.463,118.753,34.016,118.753,39.791z M103.393,39.791
			c0,7.168,2.105,8.706,5.319,8.706c3.215,0,5.32-1.538,5.32-8.706c0-7.253-2.105-8.82-5.32-8.82
			C105.498,30.971,103.393,32.538,103.393,39.791z"/>
		<path fill="#00A55D" d="M133.483,29.777l5.719,16.697c0.426,1.251,0.71,1.962,1.791,2.188v1.027h-5.29l-5.093-14.909h-0.339
			c-0.514,2.56-1.879,8.139-2.962,10.838c-1.479,3.587-2.671,4.381-4.436,4.381c-1.79,0-2.448-1.249-2.448-2.077
			c0-0.936,0.714-1.848,1.851-1.848c0.285,0,0.57,0.085,0.854,0.201c0.397,0.169,0.767,0.395,1.167,0.395
			c0.936,0,1.506-1.052,2.814-5.287c0.542-1.738,1.961-6.484,1.961-8.619c0-0.287-0.027-1.963-1.816-1.963h-0.484v-1.024H133.483z"
			/>
		<path fill="#00A55D" d="M157.379,29.777c0.797,0,1.108-0.057,1.309-0.514h0.713v5.094h-1.025
			c-0.653-2.505-1.965-3.074-4.579-3.074h-4.753v7.197h3.157c1.367,0,2.476-0.312,2.445-1.818h1.027v5.119h-1.027
			c-0.14-1.71-1.392-1.792-1.874-1.792h-3.729v8.192h6.829c2.104,0,3.897-1.477,4.267-3.527h1.023v5.036h-17.864v-1.027
			c1.339-0.143,1.479-1.108,1.479-1.879V32.68c0-0.856-0.141-1.709-1.479-1.878v-1.024H157.379z"/>
	</g>
	<g>
		<path fill="#00A55D" d="M35.72,19.654c0.539-0.056,1.394-0.428,1.394-1.65V6.885c0-4.67,3.698-6.429,7.622-6.429
			c4.725,0,7.142,3.325,7.142,6.626c0,1.505-0.371,4.892-3.699,6.34c-0.796,0.343-1.62,0.569-2.475,0.569
			c-1.167,0-2.787-0.169-4.323-1.251v5.264c0,0.71,0.512,1.537,1.507,1.65v1.025H35.72V19.654z M41.379,9.699
			c0,1.48,1.537,2.417,2.986,2.417c2.559,0,2.789-2.417,2.789-5.061c0-2.62-0.058-4.953-2.76-5.094
			c-1.566-0.084-3.016,1.025-3.016,2.902V9.699z"/>
		<path fill="#00A55D" d="M74.517,10.78c0,5.601-4.209,10.211-10.04,10.211c-5.833,0-10.042-4.61-10.042-10.211
			c0-5.776,4.294-10.323,10.042-10.323C70.222,0.457,74.517,5.004,74.517,10.78z M59.159,10.78c0,7.167,2.104,8.706,5.319,8.706
			s5.319-1.539,5.319-8.706c0-7.252-2.105-8.819-5.319-8.819S59.159,3.528,59.159,10.78z"/>
		<path fill="#00A55D" d="M104.232,1.792c-0.598,0.057-1.423,0.424-1.423,1.619V9.67h9.899V3.411c0-0.739-0.255-1.45-1.394-1.619
			V0.767h7.083v1.024c-1.024,0.142-1.423,0.711-1.423,1.619l0.029,14.622c0,1.081,0.427,1.309,1.394,1.622v1.025h-7.083v-1.025
			c0.967-0.313,1.394-0.541,1.394-1.622v-6.853h-9.899v6.853c0,0.738,0.172,1.28,1.423,1.622v1.025h-7.083v-1.025
			c1.052-0.342,1.394-0.682,1.394-1.622V3.411c0-0.283-0.027-1.42-1.394-1.619V0.767h7.083V1.792z"/>
		<path fill="#00A55D" d="M140.897,10.78c0,5.601-4.211,10.211-10.04,10.211c-5.832,0-10.041-4.61-10.041-10.211
			c0-5.776,4.294-10.323,10.041-10.323C136.602,0.457,140.897,5.004,140.897,10.78z M125.538,10.78c0,7.167,2.105,8.706,5.319,8.706
			s5.319-1.539,5.319-8.706c0-7.252-2.105-8.819-5.319-8.819S125.538,3.528,125.538,10.78z"/>
		<path fill="#00A55D" d="M157.396,0.767c0.797,0,1.108-0.057,1.309-0.513h0.711v5.093h-1.025c-0.654-2.505-1.963-3.075-4.58-3.075
			h-4.748v7.2h3.157c1.365,0,2.475-0.315,2.444-1.821h1.024v5.119h-1.024c-0.143-1.708-1.394-1.792-1.877-1.792h-3.725v8.192h6.826
			c2.105,0,3.895-1.478,4.268-3.528h1.022v5.037h-17.861v-1.025c1.336-0.141,1.477-1.109,1.477-1.88V3.669
			c0-0.855-0.141-1.708-1.477-1.877V0.767H157.396z"/>
		<path fill="#00A55D" d="M95.179,19.17c-0.294,0.003-0.852-0.123-1.261-0.625c-0.404-0.499-0.901-1.357-1.568-2.959L85.877,0
			h-1.784c-0.371,0.484-1.235,1.363-3.113,1.534V2.56c0.298-0.03,1.162-0.085,1.162,0.568c0,0.512-0.049,1.111-0.297,1.735
			l-4.99,12.144c-0.124,0.305-0.366,0.835-0.729,1.308c-0.341,0.449-0.665,0.545-1.174,0.657c-0.968,0.227-1.849,0-1.849,1.054
			c0,1.334,1.392,3.41,2.501,4.407c1.081,0.964,1.593,1.053,1.849,1.053c1.194,0,0.625-1.307,0.428-1.847
			c-0.199-0.543-0.484-1.341-0.484-1.882c0-0.739,0.4-1.079,1.622-1.079h11.297c1.195,0,1.336,1.05,1.336,1.45
			c0,0.428-0.169,0.855-0.341,1.251c-0.398,0.912-0.571,1.138-0.571,1.453c0,0.225,0.146,0.653,0.743,0.653
			c1.763,0,4.806-3.697,4.806-5.46C96.289,19.058,95.664,19.17,95.179,19.17z M78.815,16.526l4.522-11.095h0.099l4.669,11.265
			c0.05,0.112,0.223,0.653,0.223,0.879c0,0.598-0.312,1.478-1.12,1.605c-3.097,0-6.117-0.007-7.169-0.011
			C77.933,18.686,78.572,17.141,78.815,16.526z"/>
	</g>
	<path fill="#00A55D" d="M58.492,33.947h-2.591c-0.521,1.4-1.25,3.764-1.955,7.435c-0.302,1.569-0.518,3.01-0.677,4.317
		c-0.036-3.663,0.561-8.865,2.672-15.906h-5.097c-0.995,2.819-1.741,5.321-2.282,7.521c0.13-2.769,0.407-5.392,0.934-7.339
		c0.015-0.06,0.037-0.12,0.052-0.183h-3.09c-0.718,5.05-0.544,14.621-0.354,19.92h10.143c-0.021-2.451,0.042-5.747,0.336-7.618
		C57.026,39.277,57.928,35.921,58.492,33.947z M29.225,29.793c-0.828,3.01-1.567,5.995-2.029,8.777
		c-0.209-2.676-0.314-5.379-0.198-7.757c0.1-1.993,0.106-4.118,0.349-6.21c0.026-0.187,0.193-1.711,0.385-3.107
		c0.189-1.365,0.396-2.604,0.425-2.785c0.696-4.486,1.389-7.868,1.389-7.868h-2.728c1.625-1.913,3.363-3.689,5.079-5.301h-3.661
		c-1.798,1.809-4.148,4.445-5.833,6.69C22.619,10.988,23,9.493,23.228,8.32c3.486-3.273,6.821-6.013,8.655-7.61h-3.194
		c-1.128,0.809-3.034,2.396-4.707,3.807c0.258-1.234,0.58-2.817,0.802-3.807h-3.353c-0.298,1.201-0.946,3.979-1.654,7.801
		c-0.478,0.536-0.986,1.134-1.525,1.791c0.455-3.078,1.031-6.287,1.768-9.592h-2.974c-0.958,2.929-2.168,7.494-3.227,14.162
		c-3.497,2.266-8.478,7.031-11.675,14.169C-3.352,41.314,3.37,48.99,4.042,49.713h2.609c-1.279-1.546-6.768-7.752-2.09-21.558
		c1.411-4.167,4.768-7.808,7.869-10.477c-0.802,1.346-1.548,2.739-2.182,4.196c-4.286,9.911-3.587,20.067-2.724,27.838h2.338
		c-0.39-6.06-1.076-16.82,2.389-26.17c0.166-0.452,0.391-0.891,0.587-1.336c-0.985,8.811-1.057,14.807-0.861,20.167
		c-0.272,2.125-0.453,5.501-0.572,7.34h19.731c-0.165-1.89-0.193-4.083-0.264-4.563c0.411-3.338,1.241-10.951,2.63-15.357H29.225z
		 M17.593,45.298c0,0-0.792-4.666-0.802-11.156c0.113-0.695,0.742-3.562,0.872-4.279C17.565,33.137,17.387,41.961,17.593,45.298z
		 M18.003,20.408c-0.343,0.848-0.694,1.756-1.044,2.725c0.146-2.651,0.379-5.515,0.729-8.54c0.424-0.628,0.88-1.275,1.371-1.936
		C18.681,15.021,18.315,17.626,18.003,20.408z M22.474,26.988c-0.655,5.889-0.638,15.895-0.752,16.12
		c-0.035-1.969-0.859-11.214-0.35-19.738c0.109-1.832,0.359-3.729,0.614-5.649c0.518-0.915,1.902-3.135,2.5-4.015
		C23.805,16.467,23.046,20.718,22.474,26.988z M68.054,29.793h-2.417c-0.117,0.176-0.232,0.352-0.332,0.519
		c-0.463,0.767-1.368,2.195-1.836,3.459c0.04-1.1,0.146-2.661,0.228-3.978h-3.358c-0.092,0.868-0.188,1.782-0.287,2.77
		c-0.222,2.266-0.389,4.389-0.509,6.345c-1.811,4.188-2.407,8.201-2.445,10.806h6.941c-0.484-3.606-0.531-6.799-0.541-9.884
		C64.421,37.021,65.853,33.703,68.054,29.793z M37.391,29.793h-3.025c-0.606,4.845-0.405,16.374-0.151,19.92h3.22
		C37.183,45.538,36.816,37.885,37.391,29.793z M38.044,49.713h4.08c0.099-4.96,0.511-13.222,2.009-19.92h-3.721
		C38.768,36.577,38.223,44.801,38.044,49.713z"/>
</g>
</svg>
